<svg width="163" height="49" viewBox="0 0 163 49" fill="none" xmlns="http://www.w3.org/2000/svg">
<path d="M11.2936 9.31169C11.2936 9.31169 10.0761 10.2152 8.83777 9.31169C8.83777 9.31169 8.30903 8.88213 8.24641 8.72661C8.24641 8.72661 8.00292 8.4748 7.8916 8.78586C7.8916 8.78586 7.97509 9.29688 8.72646 10.0449C8.72646 10.0449 10.0761 11.7483 12.3511 10.2967C12.365 10.2967 12.372 10.2819 12.3859 10.2745L15.7671 8.14153C15.7671 8.14153 18.9465 6.19372 20.5466 9.67459C20.5466 9.67459 21.7502 12.0371 20.5466 14.7996C20.5466 14.7996 19.6283 16.7178 17.9307 18.2805L16.6089 19.584C16.6089 19.584 15.9549 20.0802 16.6576 20.0654C16.6576 20.0654 18.0142 19.147 18.6125 18.6138C18.6125 18.6138 21.1032 16.2586 21.7363 14.4219C21.7363 14.4219 22.919 11.5557 21.945 9.07469C21.945 9.07469 20.811 5.43089 16.9567 6.33443C16.9567 6.33443 14.6609 7.36388 13.833 7.84528L11.2936 9.31169Z" fill="url(#paint0_linear_199_965)"/>
<path d="M10.5697 6.89717C10.5697 6.89717 9.8601 6.91199 9.59573 6.63055C9.59573 6.63055 7.98168 5.86032 7.39728 5.82329C7.39728 5.82329 4.9762 5.20858 2.72905 6.51206C2.72905 6.51206 -0.74951 7.86737 0.147959 13.1331C0.147959 13.1331 0.168831 15.9696 3.96742 19.258C3.96742 19.258 6.18674 20.9243 7.32771 21.7316C7.32771 21.7316 11.4672 24.4274 14.6675 28.6193C14.6675 28.6193 17.7356 32.4408 17.2764 35.8773C17.2764 35.8773 16.6363 41.928 8.88611 43.8166L8.22518 43.8684C8.22518 43.8684 8.06517 43.8907 8.05125 44.0758C8.05125 44.0758 8.03038 44.3202 8.38519 44.2536C8.38519 44.2536 10.9593 44.0906 11.7107 43.7499C11.7107 43.7499 13.7352 43.1278 14.8136 42.1428C14.8136 42.1428 18.0904 39.5951 18.2921 35.07C18.2921 35.07 18.48 30.5819 15.391 27.4047C15.391 27.4047 11.5298 22.9906 7.72427 20.3985C7.72427 20.3985 3.26475 17.2213 2.09595 13.9996C2.09595 13.9996 0.210575 8.5043 4.19005 7.40079C4.19005 7.40079 5.35884 6.94161 6.4372 7.01567C6.4372 7.01567 7.94689 7.21563 8.56608 7.49707C8.56608 7.49707 10.9872 7.83034 11.8777 7.46004C11.8777 7.46004 13.29 7.24526 13.0673 6.75646C13.0673 6.75646 12.9978 6.59352 12.7473 6.72683C12.7473 6.72683 11.0706 7.06751 10.5489 6.90458L10.5697 6.89717Z" fill="url(#paint1_linear_199_965)"/>
<path d="M8.35708 25.8049C8.35708 25.8049 7.98139 27.116 11.1538 26.9975C11.1538 26.9975 14.1037 26.7531 12.1765 27.2716C12.1765 27.2716 8.71885 28.1752 7.397 26.7086C7.397 26.7086 6.85434 26.0346 7.68919 25.3383C7.68919 25.3383 8.74668 24.4494 8.35708 25.7975V25.8049Z" fill="url(#paint2_linear_199_965)"/>
<path d="M8.35708 29.2786C8.35708 29.2786 7.98139 30.5896 11.1538 30.4711C11.1538 30.4711 14.1037 30.2193 12.1765 30.7452C12.1765 30.7452 8.71885 31.6489 7.397 30.1822C7.397 30.1822 6.85434 29.5082 7.68919 28.8119C7.68919 28.8119 8.74668 27.923 8.35708 29.2712V29.2786Z" fill="url(#paint3_linear_199_965)"/>
<path d="M8.35708 32.8779C8.35708 32.8779 7.98139 34.189 11.1538 34.0705C11.1538 34.0705 14.1037 33.8261 12.1765 34.3446C12.1765 34.3446 8.71885 35.2482 7.397 33.7816C7.397 33.7816 6.85434 33.1076 7.68919 32.4113C7.68919 32.4113 8.74668 31.5224 8.35708 32.8705V32.8779Z" fill="url(#paint4_linear_199_965)"/>
<path d="M8.35708 36.2253C8.35708 36.2253 7.98139 37.5364 11.1538 37.4179C11.1538 37.4179 14.1037 37.1735 12.1765 37.692C12.1765 37.692 8.71885 38.5956 7.397 37.129C7.397 37.129 6.85434 36.455 7.68919 35.7587C7.68919 35.7587 8.74668 34.8698 8.35708 36.2179V36.2253Z" fill="url(#paint5_linear_199_965)"/>
<path d="M8.21867 39.8026C8.21867 39.8026 7.82907 41.1582 11.0989 41.0322C11.0989 41.0322 14.1392 40.773 12.1494 41.3137C12.1494 41.3137 8.5874 42.2396 7.2238 40.7359C7.2238 40.7359 6.66723 40.0471 7.52296 39.3212C7.52296 39.3212 8.61523 38.4101 8.21171 39.7952L8.21867 39.8026Z" fill="url(#paint6_linear_199_965)"/>
<path d="M9.15723 3.09051C9.15723 3.09051 13.7768 -0.671794 23.2315 0.105847C23.2315 0.105847 32.4427 0.453935 39.1007 9.83006C39.1007 9.83006 42.5932 14.3626 43.4002 20.0653C43.4002 20.0653 45.7934 31.0189 39.1007 39.2027C39.1007 39.2027 44.0124 30.9967 41.9392 22.0057C41.9392 22.0057 40.4365 10.0819 30.0912 3.86074C30.0912 3.86074 21.5409 -2.83438 9.15723 3.0831V3.09051Z" fill="url(#paint7_linear_199_965)"/>
<path d="M23.2314 5.60107C23.2314 5.60107 28.3101 5.3937 34.7037 11.0297C34.7037 11.0297 41.1252 16.2214 41.4382 26.5011C41.4382 26.5011 41.7861 31.6187 39.6642 36.129C39.6642 36.129 36.1856 45.2459 27.517 47.4974C27.517 47.4974 34.9194 44.2683 37.6953 36.7363C37.6953 36.7363 42.2731 27.4046 37.8275 17.4064C37.8275 17.4064 34.8916 8.03027 23.2384 5.60848L23.2314 5.60107Z" fill="url(#paint8_linear_199_965)"/>
<path d="M25.1797 47.49C33.5213 42.7278 35.9076 35.4476 36.5059 30.2189C38.0295 16.8657 28.9574 12.074 28.9574 12.074C28.9574 12.074 39.6088 16.999 37.7234 32.1297C37.7234 32.1297 36.2624 43.5647 25.1797 47.49Z" fill="url(#paint9_linear_199_965)"/>
<path d="M33.0967 21.665C33.0967 21.665 37.4797 34.5591 28.4702 42.5354C28.4702 42.5354 20.5182 50.2452 9.94336 45.8386C9.94336 45.8386 18.6328 51.7857 28.1641 44.2537C28.1641 44.2537 39.1076 36.9586 33.0967 21.665Z" fill="url(#paint10_linear_199_965)"/>
<path d="M56.3409 7.31226H58.0036V16.7624H56.3409L52.7858 10.8376V16.7624H51.123V7.31226H52.6814L56.3409 13.4001V7.31226Z" fill="url(#paint11_linear_199_965)"/>
<path d="M64.4733 7.31226H66.136V16.7624H64.4733V13.0446H61.5026V16.7624H59.8398V7.31226H61.5026V11.2597H64.4733V7.31226Z" fill="url(#paint12_linear_199_965)"/>
<path d="M73.2883 16.7624L72.5926 14.7184H69.4688L68.7731 16.7624H66.999L70.2202 7.31226H71.8342L75.0554 16.7624H73.2813H73.2883ZM71.0342 10.134L70.0949 12.8816H71.9595L71.0342 10.134Z" fill="url(#paint13_linear_199_965)"/>
<path d="M78.7432 7.31234H80.4059V11.1931L83.2236 7.31234H85.2829L82.3122 11.4894C82.5696 11.9412 83.0427 12.778 83.7314 14.0075C84.4202 15.2369 84.935 16.1552 85.2759 16.7625H83.3349L81.1503 13.0298L80.4059 14.0815V16.7551H78.7432V7.30493V7.31234Z" fill="url(#paint14_linear_199_965)"/>
<path d="M90.9528 7.31226H92.6155V16.7624H90.9528V13.0446H87.9821V16.7624H86.3193V7.31226H87.9821V11.2597H90.9528V7.31226Z" fill="url(#paint15_linear_199_965)"/>
<path d="M100.727 15.4587C99.9757 16.3845 99.0434 16.8511 97.9442 16.8511C96.845 16.8511 95.9127 16.3845 95.1614 15.4513C94.41 14.5182 94.0273 13.3554 94.0273 11.9705C94.0273 10.5855 94.403 9.42277 95.1614 8.4896C95.9127 7.55643 96.845 7.08984 97.9442 7.08984C99.0434 7.08984 99.9757 7.55643 100.727 8.4896C101.478 9.42277 101.861 10.5855 101.861 11.9705C101.861 13.3554 101.485 14.5182 100.727 15.4587ZM100.164 11.9853C100.164 11.141 99.9479 10.4152 99.5235 9.82269C99.0991 9.23021 98.5703 8.92656 97.9512 8.92656C97.332 8.92656 96.8032 9.2228 96.3789 9.82269C95.9545 10.4152 95.7388 11.1336 95.7388 11.9779C95.7388 12.8222 95.9545 13.5406 96.3789 14.1256C96.8032 14.7181 97.332 15.0144 97.9512 15.0144C98.5703 15.0144 99.0991 14.7181 99.5235 14.1256C99.9479 13.5332 100.164 12.8222 100.164 11.9853Z" fill="url(#paint16_linear_199_965)"/>
<path d="M108.36 16.7624L107.664 14.7184H104.54L103.844 16.7624H102.07L105.291 7.31226H106.906L110.127 16.7624H108.353H108.36ZM106.105 10.134L105.166 12.8816H107.031L106.105 10.134Z" fill="url(#paint17_linear_199_965)"/>
<path d="M113.813 7.31226H115.476V16.7624H113.813V7.31226Z" fill="url(#paint18_linear_199_965)"/>
<path d="M123.999 10.808L121.982 15.9701H120.987L118.983 10.808V16.7551H117.32V7.30493H119.574L121.495 12.4966L123.429 7.30493H125.669V16.7551H124.006V10.808H123.999Z" fill="url(#paint19_linear_199_965)"/>
<path d="M130.156 14.1259H129.161V16.7624H127.498V7.31226H130.135C131.283 7.31226 132.118 7.59369 132.639 8.15655C133.161 8.71942 133.426 9.58593 133.426 10.7561C133.426 11.9263 133.154 12.778 132.618 13.3186C132.083 13.8593 131.262 14.1333 130.156 14.1333V14.1259ZM130.114 9.11935H129.161V12.2818H130.281C130.837 12.2818 131.213 12.141 131.415 11.8596C131.617 11.5782 131.714 11.1634 131.714 10.6228C131.714 10.0821 131.582 9.69702 131.324 9.46743C131.067 9.23784 130.664 9.12675 130.114 9.12675V9.11935Z" fill="url(#paint20_linear_199_965)"/>
<path d="M134.727 16.7624V7.31226H136.389V14.8813H139.569V16.7624H134.727Z" fill="url(#paint21_linear_199_965)"/>
<path d="M146.102 16.7624L145.406 14.7184H142.282L141.587 16.7624H139.812L143.034 7.31226H144.648L147.869 16.7624H146.095H146.102ZM143.848 10.134L142.908 12.8816H144.773L143.848 10.134Z" fill="url(#paint22_linear_199_965)"/>
<path d="M153.956 7.31226H155.619V16.7624H153.956L150.401 10.8376V16.7624H148.738V7.31226H150.297L153.956 13.4001V7.31226Z" fill="url(#paint23_linear_199_965)"/>
<path d="M160.615 9.14897V16.7624H158.952V9.14897H156.837V7.31226H162.73V9.14897H160.615Z" fill="url(#paint24_linear_199_965)"/>
<path d="M66.0107 24.4497H69.6076V42.2836H66.0107V24.4497Z" fill="url(#paint25_linear_199_965)"/>
<path d="M73.1279 36.3149V32.9224H81.3304V36.3149H73.1279Z" fill="url(#paint26_linear_199_965)"/>
<path d="M90.3605 42.2836H84.8574V24.4497H90.5483C93.4216 24.4497 95.627 25.2273 97.1576 26.7826C98.6951 28.3379 99.4604 30.5005 99.4604 33.2778C99.4604 36.0551 98.7091 38.2473 97.2133 39.8618C95.7175 41.4763 93.4286 42.2836 90.3605 42.2836ZM90.4509 27.9158H88.4473V38.7583H90.7292C92.3711 38.7583 93.6373 38.2991 94.5209 37.3808C95.4044 36.4624 95.8427 35.1293 95.8427 33.3741C95.8427 31.6188 95.4044 30.2709 94.5209 29.3303C93.6373 28.3823 92.2807 27.9158 90.4509 27.9158Z" fill="url(#paint27_linear_199_965)"/>
<path d="M114.182 24.4497V27.9972H106.167V31.6707H113.375V35.0627H106.167V38.7657H114.439V42.2836H102.577V24.4497H114.189H114.182Z" fill="url(#paint28_linear_199_965)"/>
<path d="M128.903 24.4497H132.5V42.2836H128.903L121.23 31.1078V42.2836H117.633V24.4497H120.993L128.896 35.9292V24.4497H128.903Z" fill="url(#paint29_linear_199_965)"/>
<path d="M143.277 27.9232V42.291H139.68V27.9232H135.116V24.4497H147.834V27.9232H143.27H143.277Z" fill="url(#paint30_linear_199_965)"/>
<defs>
<linearGradient id="paint0_linear_199_965" x1="0.00918195" y1="24.035" x2="162.729" y2="24.035" gradientUnits="userSpaceOnUse">
<stop stop-color="#DFAA23"/>
<stop offset="0.52" stop-color="#FBF08D"/>
<stop offset="1" stop-color="#DFAA23"/>
</linearGradient>
<linearGradient id="paint1_linear_199_965" x1="0.00881685" y1="24.0349" x2="162.729" y2="24.0349" gradientUnits="userSpaceOnUse">
<stop stop-color="#DFAA23"/>
<stop offset="0.52" stop-color="#FBF08D"/>
<stop offset="1" stop-color="#DFAA23"/>
</linearGradient>
<linearGradient id="paint2_linear_199_965" x1="0.00853142" y1="24.0346" x2="162.729" y2="24.0346" gradientUnits="userSpaceOnUse">
<stop stop-color="#DFAA23"/>
<stop offset="0.52" stop-color="#FBF08D"/>
<stop offset="1" stop-color="#DFAA23"/>
</linearGradient>
<linearGradient id="paint3_linear_199_965" x1="0.00853142" y1="24.0343" x2="162.729" y2="24.0343" gradientUnits="userSpaceOnUse">
<stop stop-color="#DFAA23"/>
<stop offset="0.52" stop-color="#FBF08D"/>
<stop offset="1" stop-color="#DFAA23"/>
</linearGradient>
<linearGradient id="paint4_linear_199_965" x1="0.00853142" y1="24.0337" x2="162.729" y2="24.0337" gradientUnits="userSpaceOnUse">
<stop stop-color="#DFAA23"/>
<stop offset="0.52" stop-color="#FBF08D"/>
<stop offset="1" stop-color="#DFAA23"/>
</linearGradient>
<linearGradient id="paint5_linear_199_965" x1="0.00853142" y1="24.0331" x2="162.729" y2="24.0331" gradientUnits="userSpaceOnUse">
<stop stop-color="#DFAA23"/>
<stop offset="0.52" stop-color="#FBF08D"/>
<stop offset="1" stop-color="#DFAA23"/>
</linearGradient>
<linearGradient id="paint6_linear_199_965" x1="0.00926499" y1="24.0327" x2="162.729" y2="24.0327" gradientUnits="userSpaceOnUse">
<stop stop-color="#DFAA23"/>
<stop offset="0.52" stop-color="#FBF08D"/>
<stop offset="1" stop-color="#DFAA23"/>
</linearGradient>
<linearGradient id="paint7_linear_199_965" x1="0.00860807" y1="24.035" x2="162.729" y2="24.035" gradientUnits="userSpaceOnUse">
<stop stop-color="#DFAA23"/>
<stop offset="0.52" stop-color="#FBF08D"/>
<stop offset="1" stop-color="#DFAA23"/>
</linearGradient>
<linearGradient id="paint8_linear_199_965" x1="0.00856624" y1="24.0349" x2="162.729" y2="24.0349" gradientUnits="userSpaceOnUse">
<stop stop-color="#DFAA23"/>
<stop offset="0.52" stop-color="#FBF08D"/>
<stop offset="1" stop-color="#DFAA23"/>
</linearGradient>
<linearGradient id="paint9_linear_199_965" x1="0.00881899" y1="24.0348" x2="162.729" y2="24.0348" gradientUnits="userSpaceOnUse">
<stop stop-color="#DFAA23"/>
<stop offset="0.52" stop-color="#FBF08D"/>
<stop offset="1" stop-color="#DFAA23"/>
</linearGradient>
<linearGradient id="paint10_linear_199_965" x1="0.00858806" y1="24.035" x2="162.729" y2="24.035" gradientUnits="userSpaceOnUse">
<stop stop-color="#DFAA23"/>
<stop offset="0.52" stop-color="#FBF08D"/>
<stop offset="1" stop-color="#DFAA23"/>
</linearGradient>
<linearGradient id="paint11_linear_199_965" x1="0.0090679" y1="24.0352" x2="162.729" y2="24.0352" gradientUnits="userSpaceOnUse">
<stop stop-color="#DFAA23"/>
<stop offset="0.52" stop-color="#FBF08D"/>
<stop offset="1" stop-color="#DFAA23"/>
</linearGradient>
<linearGradient id="paint12_linear_199_965" x1="0.0085628" y1="24.0352" x2="162.729" y2="24.0352" gradientUnits="userSpaceOnUse">
<stop stop-color="#DFAA23"/>
<stop offset="0.52" stop-color="#FBF08D"/>
<stop offset="1" stop-color="#DFAA23"/>
</linearGradient>
<linearGradient id="paint13_linear_199_965" x1="0.00887474" y1="24.0352" x2="162.729" y2="24.0352" gradientUnits="userSpaceOnUse">
<stop stop-color="#DFAA23"/>
<stop offset="0.52" stop-color="#FBF08D"/>
<stop offset="1" stop-color="#DFAA23"/>
</linearGradient>
<linearGradient id="paint14_linear_199_965" x1="0.00945381" y1="24.0353" x2="162.73" y2="24.0353" gradientUnits="userSpaceOnUse">
<stop stop-color="#DFAA23"/>
<stop offset="0.52" stop-color="#FBF08D"/>
<stop offset="1" stop-color="#DFAA23"/>
</linearGradient>
<linearGradient id="paint15_linear_199_965" x1="0.0092345" y1="24.0352" x2="162.729" y2="24.0352" gradientUnits="userSpaceOnUse">
<stop stop-color="#DFAA23"/>
<stop offset="0.52" stop-color="#FBF08D"/>
<stop offset="1" stop-color="#DFAA23"/>
</linearGradient>
<linearGradient id="paint16_linear_199_965" x1="0.00882101" y1="24.035" x2="162.729" y2="24.035" gradientUnits="userSpaceOnUse">
<stop stop-color="#DFAA23"/>
<stop offset="0.52" stop-color="#FBF08D"/>
<stop offset="1" stop-color="#DFAA23"/>
</linearGradient>
<linearGradient id="paint17_linear_199_965" x1="0.0092957" y1="24.0352" x2="162.729" y2="24.0352" gradientUnits="userSpaceOnUse">
<stop stop-color="#DFAA23"/>
<stop offset="0.52" stop-color="#FBF08D"/>
<stop offset="1" stop-color="#DFAA23"/>
</linearGradient>
<linearGradient id="paint18_linear_199_965" x1="0.00887959" y1="24.0352" x2="162.729" y2="24.0352" gradientUnits="userSpaceOnUse">
<stop stop-color="#DFAA23"/>
<stop offset="0.52" stop-color="#FBF08D"/>
<stop offset="1" stop-color="#DFAA23"/>
</linearGradient>
<linearGradient id="paint19_linear_199_965" x1="0.009313" y1="24.0353" x2="162.729" y2="24.0353" gradientUnits="userSpaceOnUse">
<stop stop-color="#DFAA23"/>
<stop offset="0.52" stop-color="#FBF08D"/>
<stop offset="1" stop-color="#DFAA23"/>
</linearGradient>
<linearGradient id="paint20_linear_199_965" x1="0.00869888" y1="24.0352" x2="162.729" y2="24.0352" gradientUnits="userSpaceOnUse">
<stop stop-color="#DFAA23"/>
<stop offset="0.52" stop-color="#FBF08D"/>
<stop offset="1" stop-color="#DFAA23"/>
</linearGradient>
<linearGradient id="paint21_linear_199_965" x1="0.00869391" y1="24.0352" x2="162.729" y2="24.0352" gradientUnits="userSpaceOnUse">
<stop stop-color="#DFAA23"/>
<stop offset="0.52" stop-color="#FBF08D"/>
<stop offset="1" stop-color="#DFAA23"/>
</linearGradient>
<linearGradient id="paint22_linear_199_965" x1="0.00909297" y1="24.0352" x2="162.729" y2="24.0352" gradientUnits="userSpaceOnUse">
<stop stop-color="#DFAA23"/>
<stop offset="0.52" stop-color="#FBF08D"/>
<stop offset="1" stop-color="#DFAA23"/>
</linearGradient>
<linearGradient id="paint23_linear_199_965" x1="0.0089164" y1="24.0352" x2="162.729" y2="24.0352" gradientUnits="userSpaceOnUse">
<stop stop-color="#DFAA23"/>
<stop offset="0.52" stop-color="#FBF08D"/>
<stop offset="1" stop-color="#DFAA23"/>
</linearGradient>
<linearGradient id="paint24_linear_199_965" x1="0.00940097" y1="24.0352" x2="162.73" y2="24.0352" gradientUnits="userSpaceOnUse">
<stop stop-color="#DFAA23"/>
<stop offset="0.52" stop-color="#FBF08D"/>
<stop offset="1" stop-color="#DFAA23"/>
</linearGradient>
<linearGradient id="paint25_linear_199_965" x1="0.00853902" y1="24.035" x2="162.729" y2="24.035" gradientUnits="userSpaceOnUse">
<stop stop-color="#DFAA23"/>
<stop offset="0.52" stop-color="#FBF08D"/>
<stop offset="1" stop-color="#DFAA23"/>
</linearGradient>
<linearGradient id="paint26_linear_199_965" x1="0.00856044" y1="24.0337" x2="162.729" y2="24.0337" gradientUnits="userSpaceOnUse">
<stop stop-color="#DFAA23"/>
<stop offset="0.52" stop-color="#FBF08D"/>
<stop offset="1" stop-color="#DFAA23"/>
</linearGradient>
<linearGradient id="paint27_linear_199_965" x1="0.00838595" y1="24.035" x2="162.728" y2="24.035" gradientUnits="userSpaceOnUse">
<stop stop-color="#DFAA23"/>
<stop offset="0.52" stop-color="#FBF08D"/>
<stop offset="1" stop-color="#DFAA23"/>
</linearGradient>
<linearGradient id="paint28_linear_199_965" x1="0.00827241" y1="24.035" x2="162.728" y2="24.035" gradientUnits="userSpaceOnUse">
<stop stop-color="#DFAA23"/>
<stop offset="0.52" stop-color="#FBF08D"/>
<stop offset="1" stop-color="#DFAA23"/>
</linearGradient>
<linearGradient id="paint29_linear_199_965" x1="0.00866067" y1="24.035" x2="162.729" y2="24.035" gradientUnits="userSpaceOnUse">
<stop stop-color="#DFAA23"/>
<stop offset="0.52" stop-color="#FBF08D"/>
<stop offset="1" stop-color="#DFAA23"/>
</linearGradient>
<linearGradient id="paint30_linear_199_965" x1="0.0088869" y1="24.035" x2="162.729" y2="24.035" gradientUnits="userSpaceOnUse">
<stop stop-color="#DFAA23"/>
<stop offset="0.52" stop-color="#FBF08D"/>
<stop offset="1" stop-color="#DFAA23"/>
</linearGradient>
</defs>
</svg>
